<svg width="562" height="180" viewBox="0 0 562 180" fill="none" xmlns="http://www.w3.org/2000/svg">
<path d="M155.442 70.9609C157.655 71.6371 159.393 73.362 160.082 75.5764L165.434 92.7743C156.576 77.3186 115.648 66.3003 115.648 66.3003C134.03 65.283 148.911 68.9644 155.442 70.9609Z" fill="#FFA817"/>
<path d="M73.7343 74L74.5894 78.605C48.1076 82.1319 12.9487 89.2552 12.9487 89.2552L73.7343 74Z" fill="#FFA817"/>
<path d="M78.8377 78.0607L77.8898 72.9574L100.148 67.3724L102.057 77.2491C98.7674 76.1562 89.8403 76.7161 78.8377 78.0607Z" fill="#FFA817"/>
<path d="M47.1597 131.528C46.8325 133.704 45.7734 135.303 44.3724 135.442C42.8003 135.598 41.2917 133.872 40.6259 131.375L47.1597 131.528Z" fill="#FFA817"/>
<path d="M164.122 130.566C164.042 135.003 161.43 138.658 157.871 139.011C154.085 139.39 150.613 135.89 149.931 131.112L164.122 130.566Z" fill="#FFA817"/>
<path d="M1.71353 120.253L1.89495 120.241C2.50259 120.225 3.00693 120.707 3.02256 121.316L3.03384 121.792C3.04947 122.399 2.56943 122.906 1.96179 122.922L1.83679 122.931L1.71353 120.253ZM3.09808 105.322C3.09808 105.322 24.4158 107.224 51.1276 104.94C51.1276 104.94 44.993 100.899 46.0139 101.359C47.0347 101.819 88.2621 98.0547 111.374 110.168C111.374 110.168 87.855 102.033 56.8602 104.251C56.8602 104.251 57.8264 104.876 62.9627 108C62.9627 108 27.9913 109.072 3.09808 105.322ZM115.678 105.936C114.576 96.9913 110.816 78.1762 108.941 69.0278L112.641 69.1372C113.512 69.1623 114.288 69.6971 114.624 70.5017L116.918 75.9887C117.128 76.4922 117.52 76.8967 118.014 77.1241C119.034 77.5903 120.865 78.2778 122.416 78.0417C122.802 77.9809 123.03 77.5729 122.895 77.2049L120.515 70.7179C119.857 68.9245 118.18 67.7118 116.276 67.6511L108.608 67.4054C108.146 65.1623 107.86 63.8116 107.86 63.8116C130.793 60.6962 147.977 65.4688 156.052 68.5182C159.336 69.7578 161.941 72.3307 163.236 75.5972C170.186 93.1476 172.088 109.224 172.088 109.224L115.678 105.936ZM116.568 117.602L116.693 115.376C116.726 114.768 117.246 114.303 117.852 114.338L126.697 114.837C127.304 114.872 127.767 115.392 127.733 116L127.608 118.224C127.575 118.832 127.055 119.297 126.449 119.264L117.604 118.764C116.997 118.73 116.533 118.209 116.568 117.602ZM130.625 114.964C153.686 117.337 163.613 114.964 163.613 114.964L162.8 116.45C159.854 116.905 148.602 118.316 131.681 116.48L130.625 114.964ZM132.03 116.978C138.179 117.63 143.579 117.855 148.09 117.855C155.42 117.855 160.413 117.263 162.523 116.954L161.806 118.262C157.74 118.795 147.516 119.726 132.906 118.232L132.03 116.978ZM133.252 118.728C138.977 119.3 144.027 119.5 148.285 119.5C154.481 119.5 159.008 119.077 161.534 118.76C161.202 119.363 160.6 119.767 159.917 119.845C156.707 120.207 146.812 121.086 134.902 119.816C134.29 119.751 133.736 119.424 133.385 118.918L133.252 118.728ZM111.374 105.936C111.374 105.936 85.4114 91.0912 2.78384 102.194L2.35242 94.342C2.25346 92.5382 3.42967 90.908 5.17273 90.4393L103.89 63.8516C103.89 63.8516 109.388 88.6424 111.374 105.936ZM0.143216 94.2735L1.74391 124.246C1.90797 127.326 4.41231 129.761 7.49044 129.832L10.039 129.893C10.4201 133.158 12.1988 135.628 14.0651 135.442C15.7691 135.273 16.9661 132.951 16.9601 130.055C16.9601 130.055 16.9496 128.633 16.2066 127.087C16.2066 127.087 16.9722 128.188 17.3481 130.065L84.5286 131.639C84.5286 132.024 84.546 132.415 84.5851 132.811C85.0842 137.846 88.6675 141.612 92.5877 141.223C96.3594 140.846 99.0668 136.764 98.8255 131.974C98.8255 131.974 98.6215 128.566 96.9427 125.122C96.9427 125.122 98.6545 127.136 99.638 131.993L104.349 132.104L170.411 129.558C173.607 129.434 176.199 126.882 176.333 123.681C176.4 122.067 176.406 120.431 176.36 118.78L167.79 119.264C167.185 119.297 166.665 118.832 166.63 118.224L166.504 116C166.471 115.392 166.936 114.872 167.543 114.837L176.12 114.352C174.924 99.3785 170.019 84.0156 166.923 75.5261C166.661 74.8116 166.356 74.1189 166.009 73.4523L169.603 73.559C170.474 73.5851 171.25 74.1189 171.588 74.9236L173.881 80.4106C174.092 80.9141 174.482 81.3195 174.977 81.546C175.997 82.0122 177.828 82.7005 179.378 82.4618C179.764 82.4028 179.992 81.9948 179.858 81.6268L177.478 75.1398C176.821 73.3464 175.144 72.1337 173.238 72.0738L165.035 71.8116C163.143 68.9844 160.448 66.7483 157.256 65.4202C136.258 56.6754 113.124 58.9071 105.285 60.0313C103.701 60.2596 102.135 60.5929 100.595 61.0295L4.42447 88.2761C1.77342 89.0278 -0.00348563 91.5182 0.143216 94.2735Z" fill="#FFA817"/>
<path d="M81.7882 43.1702L83.9054 49.8377C83.9566 49.9905 84.092 50.0755 84.2448 50.0755L91.7326 50.0243C92.0712 50.0243 92.2075 50.4488 91.9358 50.6528L85.8368 55.013C85.7187 55.0981 85.6675 55.2674 85.7187 55.4028L88.0903 62.5122C88.1918 62.8342 87.8359 63.1059 87.5651 62.9028L81.6016 58.5417C81.4149 58.4063 81.1953 58.4063 81.0087 58.5417L75.0616 62.9193C74.7908 63.1233 74.4184 62.8516 74.5364 62.5295L76.9088 55.4202C76.9592 55.2847 76.9088 55.1146 76.7899 55.0295L70.691 50.6693C70.4201 50.4662 70.5555 50.0417 70.8941 50.0417L78.3828 50.0929C78.5347 50.0929 78.671 49.9905 78.7213 49.8551L80.822 43.1702C80.9913 42.678 81.6354 42.678 81.7882 43.1702Z" fill="#FFD74A"/>
<path d="M105.3 38.9071L107.418 45.5755C107.47 45.7274 107.605 45.8125 107.757 45.8125L115.246 45.7621C115.584 45.7621 115.72 46.1857 115.449 46.3897L109.35 50.75C109.231 50.8351 109.181 51.0043 109.231 51.1406L111.603 58.2491C111.705 58.572 111.349 58.8429 111.078 58.6397L105.115 54.2795C104.928 54.1432 104.707 54.1432 104.522 54.2795L98.5747 58.6562C98.3038 58.8602 97.9314 58.5885 98.0495 58.2665L100.422 51.1571C100.472 51.0217 100.422 50.8515 100.303 50.7673L94.204 46.4062C93.9332 46.2031 94.0686 45.7786 94.4071 45.7786L101.896 45.8298C102.048 45.8298 102.183 45.7274 102.234 45.592L104.335 38.9071C104.504 38.4149 105.148 38.4149 105.3 38.9071Z" fill="#FFD74A"/>
<path d="M58.2752 49.0035L60.3924 55.671C60.4436 55.8238 60.5791 55.9089 60.7318 55.9089L68.2197 55.8576C68.5591 55.8576 68.6945 56.2821 68.4228 56.4861L62.3238 60.8464C62.2058 60.9314 62.1546 61.1007 62.2058 61.2361L64.5773 68.3455C64.6789 68.6675 64.323 68.9392 64.0521 68.7361L58.0886 64.375C57.902 64.2396 57.6824 64.2396 57.4957 64.375L51.5495 68.7526C51.2778 68.9566 50.9054 68.6849 51.0244 68.3629L53.3959 61.2535C53.4471 61.1181 53.3959 60.9479 53.277 60.8629L47.178 56.5026C46.9072 56.2995 47.0426 55.875 47.3811 55.875L54.8699 55.9262C55.0226 55.9262 55.158 55.8238 55.2084 55.6884L57.3091 49.0035C57.4792 48.5113 58.1225 48.5113 58.2752 49.0035Z" fill="#FFD74A"/>
<path d="M34.7621 56.1832L36.8802 62.8507C36.9305 63.0035 37.0659 63.0885 37.2187 63.0885L44.7066 63.0373C45.046 63.0373 45.1814 63.4618 44.9106 63.6649L38.8116 68.026C38.6927 68.1102 38.6415 68.2804 38.6927 68.4158L41.0642 75.5252C41.1658 75.8472 40.8107 76.1189 40.539 75.9158L34.5755 71.5547C34.3897 71.4193 34.1692 71.4193 33.9826 71.5547L28.0364 75.9323C27.7656 76.1363 27.3923 75.8646 27.5113 75.5425L29.8828 68.4332C29.934 68.2969 29.8828 68.1276 29.7647 68.0425L23.6649 63.6823C23.3941 63.4783 23.5295 63.0547 23.8689 63.0547L31.3567 63.105C31.5095 63.105 31.6449 63.0035 31.6953 62.8681L33.7968 56.1832C33.9661 55.691 34.6093 55.691 34.7621 56.1832Z" fill="#FFD74A"/>
<path d="M11.2491 64.6129L13.3672 71.2804C13.4175 71.4332 13.5538 71.5182 13.7057 71.5182L21.1944 71.467C21.533 71.467 21.6684 71.8915 21.3976 72.0946L15.2986 76.4557C15.1797 76.5399 15.1293 76.7101 15.1797 76.8455L17.5521 83.9549C17.6536 84.2769 17.2977 84.5486 17.0269 84.3446L11.0634 79.9844C10.8767 79.849 10.6562 79.849 10.4696 79.9844L4.52342 84.362C4.25259 84.5651 3.87932 84.2943 3.99825 83.9714L6.36977 76.8629C6.42099 76.7266 6.36977 76.5573 6.25172 76.4722L0.15276 72.112C-0.118942 71.908 0.017343 71.4844 0.355885 71.4844L7.84373 71.5347C7.99651 71.5347 8.13193 71.4332 8.18314 71.2977L10.2838 64.6129C10.4531 64.1207 11.0972 64.1207 11.2491 64.6129Z" fill="#FFD74A"/>
<path d="M252.896 107.2H217.184L209.792 124H199.904L230.336 56.8H239.84L270.368 124H260.288L252.896 107.2ZM249.536 99.52L235.04 66.592L220.544 99.52H249.536ZM306.025 72.64C310.953 72.64 315.369 73.728 319.273 75.904C323.177 78.08 326.217 81.12 328.393 85.024C330.633 88.928 331.753 93.44 331.753 98.56C331.753 103.68 330.633 108.224 328.393 112.192C326.217 116.096 323.177 119.136 319.273 121.312C315.369 123.488 310.953 124.576 306.025 124.576C302.249 124.576 298.793 123.84 295.656 122.368C292.521 120.896 289.929 118.752 287.881 115.936V124H279.049V52.768H288.265V80.8C290.313 78.112 292.873 76.096 295.945 74.752C299.017 73.344 302.377 72.64 306.025 72.64ZM305.257 116.512C308.521 116.512 311.433 115.776 313.993 114.304C316.617 112.768 318.665 110.656 320.137 107.968C321.673 105.216 322.441 102.08 322.441 98.56C322.441 95.04 321.673 91.936 320.137 89.248C318.665 86.496 316.617 84.384 313.993 82.912C311.433 81.44 308.521 80.704 305.257 80.704C302.057 80.704 299.145 81.44 296.521 82.912C293.897 84.384 291.849 86.496 290.377 89.248C288.905 91.936 288.169 95.04 288.169 98.56C288.169 102.08 288.905 105.216 290.377 107.968C291.849 110.656 293.897 112.768 296.521 114.304C299.145 115.776 302.057 116.512 305.257 116.512ZM366.278 124.576C361.222 124.576 356.678 123.456 352.646 121.216C348.614 118.976 345.446 115.904 343.142 112C340.902 108.032 339.782 103.552 339.782 98.56C339.782 93.568 340.902 89.12 343.142 85.216C345.446 81.248 348.614 78.176 352.646 76C356.678 73.76 361.222 72.64 366.278 72.64C371.334 72.64 375.846 73.76 379.814 76C383.846 78.176 386.982 81.248 389.222 85.216C391.526 89.12 392.678 93.568 392.678 98.56C392.678 103.552 391.526 108.032 389.222 112C386.982 115.904 383.846 118.976 379.814 121.216C375.846 123.456 371.334 124.576 366.278 124.576ZM366.278 116.512C369.542 116.512 372.454 115.776 375.014 114.304C377.638 112.768 379.686 110.656 381.158 107.968C382.63 105.216 383.366 102.08 383.366 98.56C383.366 95.04 382.63 91.936 381.158 89.248C379.686 86.496 377.638 84.384 375.014 82.912C372.454 81.44 369.542 80.704 366.278 80.704C363.014 80.704 360.07 81.44 357.446 82.912C354.886 84.384 352.838 86.496 351.302 89.248C349.83 91.936 349.094 95.04 349.094 98.56C349.094 102.08 349.83 105.216 351.302 107.968C352.838 110.656 354.886 112.768 357.446 114.304C360.07 115.776 363.014 116.512 366.278 116.512ZM414.256 81.664C415.856 78.72 418.224 76.48 421.359 74.944C424.496 73.408 428.304 72.64 432.784 72.64V81.568C432.272 81.504 431.568 81.472 430.672 81.472C425.68 81.472 421.744 82.976 418.864 85.984C416.048 88.928 414.64 93.152 414.64 98.656V124H405.424V73.12H414.256V81.664ZM491.674 52.768V124H482.842V115.936C480.794 118.752 478.202 120.896 475.066 122.368C471.93 123.84 468.474 124.576 464.698 124.576C459.77 124.576 455.354 123.488 451.45 121.312C447.546 119.136 444.474 116.096 442.234 112.192C440.058 108.224 438.97 103.68 438.97 98.56C438.97 93.44 440.058 88.928 442.234 85.024C444.474 81.12 447.546 78.08 451.45 75.904C455.354 73.728 459.77 72.64 464.698 72.64C468.346 72.64 471.706 73.344 474.778 74.752C477.85 76.096 480.41 78.112 482.458 80.8V52.768H491.674ZM465.466 116.512C468.666 116.512 471.578 115.776 474.202 114.304C476.826 112.768 478.874 110.656 480.346 107.968C481.818 105.216 482.554 102.08 482.554 98.56C482.554 95.04 481.818 91.936 480.346 89.248C478.874 86.496 476.826 84.384 474.202 82.912C471.578 81.44 468.666 80.704 465.466 80.704C462.202 80.704 459.258 81.44 456.634 82.912C454.074 84.384 452.026 86.496 450.49 89.248C449.018 91.936 448.282 95.04 448.282 98.56C448.282 102.08 449.018 105.216 450.49 107.968C452.026 110.656 454.074 112.768 456.634 114.304C459.258 115.776 462.202 116.512 465.466 116.512ZM530.903 124.576C525.847 124.576 521.303 123.456 517.271 121.216C513.239 118.976 510.071 115.904 507.767 112C505.527 108.032 504.407 103.552 504.407 98.56C504.407 93.568 505.527 89.12 507.767 85.216C510.071 81.248 513.239 78.176 517.271 76C521.303 73.76 525.847 72.64 530.903 72.64C535.959 72.64 540.471 73.76 544.439 76C548.471 78.176 551.607 81.248 553.847 85.216C556.151 89.12 557.303 93.568 557.303 98.56C557.303 103.552 556.151 108.032 553.847 112C551.607 115.904 548.471 118.976 544.439 121.216C540.471 123.456 535.959 124.576 530.903 124.576ZM530.903 116.512C534.167 116.512 537.079 115.776 539.639 114.304C542.263 112.768 544.311 110.656 545.783 107.968C547.255 105.216 547.991 102.08 547.991 98.56C547.991 95.04 547.255 91.936 545.783 89.248C544.311 86.496 542.263 84.384 539.639 82.912C537.079 81.44 534.167 80.704 530.903 80.704C527.639 80.704 524.695 81.44 522.071 82.912C519.511 84.384 517.463 86.496 515.927 89.248C514.455 91.936 513.719 95.04 513.719 98.56C513.719 102.08 514.455 105.216 515.927 107.968C517.463 110.656 519.511 112.768 522.071 114.304C524.695 115.776 527.639 116.512 530.903 116.512Z" fill="white"/>
</svg>
